<svg id="visual" viewBox="0 0 900 600" width="900" height="600" xmlns="http://www.w3.org/2000/svg" xmlns:xlink="http://www.w3.org/1999/xlink" version="1.1"><rect x="0" y="0" width="900" height="600" fill="#ffffff"></rect><path d="M0 190L21.5 201.8C43 213.7 86 237.3 128.8 256.8C171.7 276.3 214.3 291.7 257.2 274.3C300 257 343 207 385.8 203.7C428.7 200.3 471.3 243.7 514.2 244.8C557 246 600 205 642.8 204.5C685.7 204 728.3 244 771.2 257.5C814 271 857 258 878.5 251.5L900 245L900 0L878.5 0C857 0 814 0 771.2 0C728.3 0 685.7 0 642.8 0C600 0 557 0 514.2 0C471.3 0 428.7 0 385.8 0C343 0 300 0 257.2 0C214.3 0 171.7 0 128.8 0C86 0 43 0 21.5 0L0 0Z" fill="#eaecef" stroke-linecap="round" stroke-linejoin="miter"></path></svg>